<!-- Generated by IcoMoon.io -->
<svg version="1.1" xmlns="http://www.w3.org/2000/svg" width="100" height="100" viewBox="0 0 100 100">
<title>facebook</title>
<rect fill="#fff" x="0" y="0" width="100" height="100"></rect>
<path fill="#4172b8" d="M99.992 49.996c0-27.612-22.384-49.996-49.996-49.996s-49.996 22.384-49.996 49.996c0 24.955 18.283 45.638 42.184 49.389v-34.937h-12.694v-14.452h12.694v-11.015c0-12.53 7.464-19.452 18.884-19.452 5.47 0 11.192 0.976 11.192 0.976v12.304h-6.304c-6.211 0-8.148 3.854-8.148 7.808v9.379h13.866l-2.217 14.452h-11.65v34.937c23.902-3.751 42.184-24.434 42.184-49.389z"></path>
</svg>
