<!-- Generated by IcoMoon.io -->
<svg version="1.1" xmlns="http://www.w3.org/2000/svg" width="100" height="100" viewBox="0 0 100 100">
<title>gmail</title>
<rect fill="#fff" x="0" y="0" width="100" height="100"></rect>
<path fill="#d14836" d="M100 18.75v62.5c0 3.542-2.708 6.25-6.25 6.25h-6.25v-56.721l-37.5 26.929-37.5-26.929v56.721h-6.25c-3.546 0-6.25-2.708-6.25-6.25v-62.5c0-1.771 0.675-3.333 1.796-4.45 1.121-1.133 2.688-1.8 4.454-1.8h2.083l41.667 30.208 41.667-30.208h2.083c1.771 0 3.333 0.675 4.454 1.8 1.125 1.117 1.796 2.679 1.796 4.45z"></path>
</svg>
